<svg xmlns="http://www.w3.org/2000/svg" width="800" height="600"><g><title>Layer 1</title><g><circle cx="807.839" cy="231.319" r="13" fill="#f2f2f2"/><path fill="#ffb6b6" d="m389.5279,367.40345a8.84237,8.84237 0 0 1 -13.09516,-3.51489l-31.26288,3.16524l7.57056,-14.46787l28.52712,-0.78768a8.89026,8.89026 0 0 1 8.26036,15.6052z" transform="translate(-183.235 -119.884)"/><path fill="#f25c39" d="m299.31724,381.6425l-68.88664,-28.54588a22.31734,22.31734 0 0 1 -12.06091,-29.12915l0,0a22.29359,22.29359 0 0 1 32.746,-10.156l55.50385,36.0849l57.76287,-2.92525l4.32484,17.98811l-69.39001,16.68327z" transform="translate(-183.235 -119.884)"/><polygon fill="#ffb6b6" points="103.392 568.632 114.421 568.632 119.668 526.09 103.39 526.091 103.392 568.632"/><path fill="#2f2e41" d="m282.89166,683.07507l17.43511,-1.04064l0,7.47l16.576,11.448a4.666,4.666 0 0 1 -2.65139,8.50572l-20.75706,0l-3.57781,-7.38894l-1.397,7.38894l-7.82628,0l2.19843,-26.38308z" transform="translate(-183.235 -119.884)"/><polygon fill="#ffb6b6" points="32.431 568.632 43.46 568.632 48.707 526.09 32.429 526.091 32.431 568.632"/><path fill="#2f2e41" d="m211.93086,683.07507l17.43511,-1.04064l0,7.47l16.57605,11.448a4.666,4.666 0 0 1 -2.65139,8.50572l-20.75715,0l-3.57781,-7.38894l-1.397,7.38894l-7.82628,0l2.19847,-26.38308z" transform="translate(-183.235 -119.884)"/><path fill="#2f2e41" d="m271.42158,453.24729l43,85.31a23.39,23.39 0 0 1 2.07,15.1a62.4005,62.4005 0 0 1 -4,12.74l-5.77,68.46l-5.17013,21.4738l-18.59989,1.58626s1.44,-18 -3.6,-43.24s3.6,-62 3.6,-62s-15.85,-25.94 -33.87,-38.92s22.34002,-60.51006 22.34002,-60.51006z" transform="translate(-183.235 -119.884)"/><path fill="#2f2e41" d="m225.30158,414.68729s-8.92,15.81 -15.51,24.32a38.89006,38.89006 0 0 0 -8.25,27.22c0.64,7 3.1,14.55 9.35,20.53c0,0 4.32,10.81 2.16,16.58l0,51.19s-11.56639,60.44266 -1.4764,78.46262l4.35641,40.44735s15.29054,4.29145 16.01054,-2.90856c0,0 1.99947,-15.82142 2.76946,-20.87147l0.58,-51.73a34.4,34.4 0 0 1 6,-18.81c3,-4.41 6,-11.26 6.4,-21l23.73,-104.87l5.28288,-36.63338l-51.40289,-1.92656z" transform="translate(-183.235 -119.884)"/><path fill="#f25c39" d="m212.0201,358.34517l9.22346,46.11762l-20.20731,47.11228l75.49033,-29.10044l1.02494,-2.78121l2.49738,-9.47136l-2.959,-29.48927c1.03931,-2.16515 15.83447,-15.83439 0.36085,-39.86754l-16.71486,-39.23243l-31.308,-0.47636l-0.13,0.13a63.075,63.075 0 0 0 -17.27779,57.05871z" transform="translate(-183.235 -119.884)"/><path fill="#ffb6b6" d="m257.93081,493.89607a8.84236,8.84236 0 0 1 -0.67744,-13.54174l-12.61517,-28.77926l16.09386,2.7605l9.51221,26.906a8.89026,8.89026 0 0 1 -12.31346,12.6545z" transform="translate(-183.235 -119.884)"/><path fill="#f25c39" d="m216.67032,412.42035l6.0061,-74.32472a22.31736,22.31736 0 0 1 24.0162,-20.42536l0,0a22.29357,22.29357 0 0 1 19.72354,28.04336l-17.2914,63.90465l20.52673,54.07179l-15.79,9.64112l-37.19117,-60.91084z" transform="translate(-183.235 -119.884)"/><path fill="#2f2e41" d="m193.04474,303.52638l76.41914,-15.62416c2.10444,-7.01939 6.13566,-13.46482 -4.99406,-24.42639a33.23405,33.23405 0 0 0 -38.05122,-26.12023l0,0c-17.54064,-1.56112 -27.3946,10.90551 -27.34372,27.63885l-6.03014,38.53193z" transform="translate(-183.235 -119.884)"/><circle cx="54.372" cy="147.11" r="25.976" fill="#ffb8b8"/><path fill="#2f2e41" d="m218.02379,245.26251a23.91974,23.91974 0 0 1 15.1285,-10.15677l4.89866,-1.00155a24,24 0 0 1 28.321,18.70609l0,0.00006c-3.5197,4.58363 -24.38914,8.057 -36.82922,9.57124c3.48379,12.57042 16.87668,22.88426 15.42782,30.52838l-48.98663,10.0155l-1.00156,-4.89873c-8.59446,-20.66717 3.39409,-41.82349 23.04143,-52.76422z" transform="translate(-183.235 -119.884)"/><path fill="#2f2e41" d="m192.83274,304.92432l76.41914,-15.62416c2.10444,-7.01939 6.13566,-13.46482 -4.99406,-24.42639a33.23407,33.23407 0 0 0 -38.05122,-26.12024l0,0c-17.54065,-1.56112 -27.3946,10.90551 -27.34372,27.63885l-6.03014,38.53194z" transform="translate(-183.235 -119.884)"/><circle cx="54.16" cy="148.508" r="25.976" fill="#ffb8b8"/><path fill="#2f2e41" d="m217.81179,246.66045a23.91974,23.91974 0 0 1 15.1285,-10.15677l4.89866,-1.00155a24,24 0 0 1 28.321,18.70609l0,0.00006c-3.5197,4.58363 -24.38914,8.057 -36.82922,9.57124c3.48379,12.57042 16.87668,22.88426 15.42782,30.52838l-48.98663,10.01549l-1.00156,-4.89872c-8.59446,-20.66717 3.39409,-41.82349 23.04143,-52.76422z" transform="translate(-183.235 -119.884)"/><path fill="#f0f0f0" d="m595.38832,492.13225l-198.13341,0a20.72929,20.72929 0 0 1 -20.70581,-20.70605l0,-258.58838a20.72919,20.72919 0 0 1 20.70581,-20.70557l198.13341,0a20.7292,20.7292 0 0 1 20.70582,20.70557l0,258.58838a20.7293,20.7293 0 0 1 -20.70582,20.70605z" transform="translate(-183.235 -119.884)"/><path fill="#f25c39" d="m595.38819,493.13186l-198.1333,0a21.73055,21.73055 0 0 1 -21.70557,-21.70606l0,-258.58789a21.73044,21.73044 0 0 1 21.70557,-21.70557l198.1333,0a21.73055,21.73055 0 0 1 21.70605,21.70557l0,258.58789a21.73065,21.73065 0 0 1 -21.70605,21.70606zm-198.1333,-299.99952a19.72784,19.72784 0 0 0 -19.70557,19.70557l0,258.58789a19.72794,19.72794 0 0 0 19.70557,19.70606l198.1333,0a19.728,19.728 0 0 0 19.70605,-19.70606l0,-258.58789a19.72794,19.72794 0 0 0 -19.70605,-19.70557l-198.1333,0z" transform="translate(-183.235 -119.884)"/><path fill="#f0f0f0" d="m917.27004,492.13225l-198.13343,0a20.7293,20.7293 0 0 1 -20.70581,-20.70605l0,-258.58838a20.7292,20.7292 0 0 1 20.70581,-20.70557l198.13343,0a20.72919,20.72919 0 0 1 20.70581,20.70557l0,258.58838a20.72929,20.72929 0 0 1 -20.70581,20.70605z" transform="translate(-183.235 -119.884)"/><path fill="#cacaca" d="m1011.70063,100.88516l-684.32337,0a1.0156,1.0156 0 0 1 0,-2.0307l684.32337,0a1.0156,1.0156 0 0 1 0,2.0307z" transform="translate(-183.235 -119.884)"/><ellipse cx="166.498" cy="-44.382" fill="#3f3d56" rx="10.925" ry="11.169"/><ellipse cx="204.24" cy="-44.382" fill="#3f3d56" rx="10.925" ry="11.169"/><ellipse cx="241.982" cy="-44.382" fill="#3f3d56" rx="10.925" ry="11.169"/><path fill="#3f3d56" d="m989.08745,71.16428l-26.81674,0a2.03119,2.03119 0 0 1 0,-4.06139l26.81674,0a2.03119,2.03119 0 0 1 0,4.06139z" transform="translate(-183.235 -119.884)"/><path fill="#3f3d56" d="m989.08745,78.77938l-26.81674,0a2.03119,2.03119 0 0 1 0,-4.06139l26.81674,0a2.03119,2.03119 0 0 1 0,4.06139z" transform="translate(-183.235 -119.884)"/><path fill="#3f3d56" d="m989.08745,86.39448l-26.81674,0a2.03119,2.03119 0 0 1 0,-4.06139l26.81674,0a2.03119,2.03119 0 0 1 0,4.06139z" transform="translate(-183.235 -119.884)"/><path fill="#d1d3d4" d="m928.57102,187.42875l-0.0202,0.018a10.64587,10.64587 0 0 0 -15.8735,14.15255l-0.0202,0.018l14.18856,15.91393l15.91392,-14.18856a10.6603,10.6603 0 0 0 -14.18856,-15.91393l-0.00002,0.00001z" transform="translate(-183.235 -119.884)"/><path fill="#3f3d56" d="m429.95861,353.94498a5.60508,5.60508 0 0 1 0.02633,-4.67218l11.877,-25.535a15.58316,15.58316 0 0 1 29.908,8.766l-3.96963,27.9731a5.61114,5.61114 0 0 1 -7.14933,4.59123l-27.17166,-8.05055a5.60478,5.60478 0 0 1 -3.52071,-3.0726z" transform="translate(-183.235 -119.884)"/><path fill="#3f3d56" d="m559.16394,341.20585l-27.17168,8.05053a5.61112,5.61112 0 0 1 -7.14932,-4.59123l-3.96962,-27.97308a15.58316,15.58316 0 0 1 29.908,-8.766l11.877,25.535a5.61112,5.61112 0 0 1 -3.49436,7.74478l-0.00002,0z" transform="translate(-183.235 -119.884)"/><path fill="#3f3d56" d="m452.27089,318.40222l21.3086,-15.49716l34.86861,-9.68572l29.05722,5.81143l1.70814,16.05655a193.84892,193.84892 0 0 1 -2.67671,58.52351l-0.70763,14.84241l-74.841,2.59193l-7.74858,-13.56s-17.43431,-17.43431 -3.8743,-36.80576l2.90565,-22.27719z" transform="translate(-183.235 -119.884)"/><path fill="#3f3d56" d="m864.34868,287.87191l0,17.22168l-1.68258,21.039s-0.53167,18.3724 -1.17455,32.864c-0.38868,8.80927 -0.8254,16.182 -1.20633,17.1344c-0.46811,1.1666 -0.35728,4.34905 -0.08719,7.69023c0.31737,3.86495 0.84129,7.9442 0.92848,9.30921c0.16663,2.54756 -1.18269,13.49163 -1.18269,13.49163s-1.50781,27.44359 -3.698,29.634c-2.19061,2.19037 0,8.42035 0,8.42035c-10.26946,7.57117 -23.23757,-1.68248 -23.23757,-1.68248c2.86527,-4.56334 -1.68258,-35.71314 -1.68258,-35.71314s-0.66652,-10.6346 -2.01545,-13.49164c-1.34932,-2.85708 -1.69072,-20.70571 -1.69072,-20.70571l0,-26.43563s-3.53953,-5.41253 -4.03943,-7.93625s0,-11.44407 0,-11.44407l-3.69841,-12.45993l-2.53162,9.76158s-6.55516,27.27691 -7.73785,30.64192a9.19752,9.19752 0 0 0 0.66691,6.73787s1.69033,5.1903 0,7.57117a17.02751,17.02751 0 0 0 -2.38088,4.88876s-0.86531,9.93616 -2.38088,13.49164c-1.51594,3.55542 -2.85712,7.93625 -2.85712,7.93625s0.35689,6.714 -1.15867,8.22989c-1.51595,1.51581 -2.01584,9.09492 -2.01584,9.09492s0.33326,8.57909 -1.69071,11.61074c-2.02359,3.03166 -2.02359,20.20573 -2.02359,20.20573a23.55356,23.55356 0 0 1 -23.71344,1.00787s2,-1.873 0.484,-10.60283c-1.51556,-8.72988 1.08736,-32.499 1.08736,-32.499s-0.33326,-6.03153 1.34893,-8.72988c1.68258,-2.6983 -0.849,-7.91242 -0.17438,-10.26952c0.67466,-2.357 2.69825,-15.15822 2.69825,-15.15822s-0.84129,-31.48311 -0.84129,-33.16559a21.983,21.983 0 0 0 -2.38087,-8.587c-1.51556,-2.6904 0,-22.22151 0,-22.22151s3.57131,-10.09494 2.38087,-12.28531s0.79363,-6.06331 0.79363,-6.06331s-1.84921,-4.5475 0,-5.38875s2.19061,-4.2062 2.19061,-4.2062l1.28538,-16.33283s0.48439,-7.41243 2.024,-7.74574c1.53959,-0.33336 0.86493,-3.19039 2.38088,-5.21412a14.2301,14.2301 0 0 0 1.50781,-4.38083c0.21429,-0.93648 0.4127,-1.91262 0.57933,-2.84909c0.47625,-2.53961 0.77,-4.73 0.77,-4.73c9.93621,8.25368 62.18024,2.46817 62.23605,2.46817c3.3171,0.72222 7.26159,12.23769 10.11058,22.27707a101.26026,101.26026 0 0 1 3.80957,27.5705z" transform="translate(-183.235 -119.884)"/><path fill="#f0f0f0" d="m328.21602,711.43457l29.02,0c0.43018,-0.78 0.83008,-1.58 1.2002,-2.39c3.33984,-7.15 4.75,-15.13 6.10009,-22.95l2.18994,-12.7q-10.5,7.635 -20.99023,15.26c-2.27979,1.66 -4.60986,3.39 -6.7998,5.26c-4.61036,3.91 -8.59034,8.43 -10.14991,14.17c-0.08008,0.32 -0.16015,0.64 -0.22021,0.96a19.46461,19.46461 0 0 0 -0.35008,2.39z" transform="translate(-183.235 -119.884)"/><path fill="#f0f0f0" d="m324.1462,709.04456a0.77469,0.77469 0 0 0 0.00976,0.15a10.48655,10.48655 0 0 0 0.54,2.24l13.03036,0a16.311,16.311 0 0 0 1.03956,-2.39a17.49786,17.49786 0 0 0 0.85009,-3.39a35.21789,35.21789 0 0 0 -0.67968,-11.74c-0.25,-1.25 -0.52,-2.51 -0.79,-3.75l-1.54,-7.08l-7.71,12.39c-2.58017,4.15002 -5.26035,8.71996 -4.75009,13.57z" transform="translate(-183.235 -119.884)"/><path fill="#cacaca" d="m191.77608,710.23456a1.19487,1.19487 0 0 0 1.18994,1.2l183.29981,0a1.195,1.195 0 0 0 0,-2.39l-183.29981,0a1.19268,1.19268 0 0 0 -1.18994,1.19z" transform="translate(-183.235 -119.884)"/><circle cx="309.581" cy="368.441" r="35.811" fill="#f25c39"/><path fill="#fff" d="m487.93062,506.96233a3.98234,3.98234 0 0 1 -3.18646,-1.59372l-9.76979,-13.0266a3.98339,3.98339 0 1 1 6.37357,-4.77986l6.39174,8.52166l16.41634,-24.62419a3.98356,3.98356 0 1 1 6.629,4.41936l-19.53959,29.30938a3.98517,3.98517 0 0 1 -3.204,1.77268c-0.03689,0.00064 -0.07385,0.00129 -0.11081,0.00129z" transform="translate(-183.235 -119.884)"/><circle cx="434.859" cy="463.67" r="13" fill="#f2f2f2"/><circle cx="537.749" cy="463.67" r="13" fill="#f2f2f2"/><circle cx="482.857" cy="463.67" r="13" fill="#f2f2f2"/></g></g></svg>